<?xml version="1.0" encoding="UTF-8"?>
<svg id="Layer_1" data-name="Layer 1" xmlns="http://www.w3.org/2000/svg" xmlns:xlink="http://www.w3.org/1999/xlink" viewBox="0 0 1367.79 1469.41">
  <defs>
    <style>
      .cls-1 {
        fill: #004b5c;
      }

      .cls-2, .cls-3 {
        fill: #208997;
      }

      .cls-4 {
        fill: #3cb4c1;
      }

      .cls-4, .cls-3, .cls-5 {
        fill-rule: evenodd;
      }

      .cls-5 {
        fill: url(#GradientFill_2);
      }
    </style>
    <linearGradient id="GradientFill_2" data-name="GradientFill 2" x1="683.02" y1="807.9" x2="683.02" y2="0" gradientUnits="userSpaceOnUse">
      <stop offset="0" stop-color="#004b5c"/>
      <stop offset=".02" stop-color="#035262"/>
      <stop offset=".08" stop-color="#0e6675"/>
      <stop offset=".17" stop-color="#167685"/>
      <stop offset=".27" stop-color="#1b818f"/>
      <stop offset=".42" stop-color="#1f8795"/>
      <stop offset="1" stop-color="#208997"/>
    </linearGradient>
  </defs>
  <g>
    <path class="cls-3" d="m292.83,0h319.8c207.65,0,386.59,129.09,460.58,310.97h-212c-56.93-75.71-147.41-125.02-248.59-125.02h-133.85v621.94h133.85c138.34,0,256.71-92.19,296.61-218h-152.34v-185.95h343.84c5.77,30.14,8.82,61.22,8.82,92.98h0c0,273.31-223.61,496.92-496.92,496.92h-133.85l-185.95-185.95V0Z"/>
    <path class="cls-5" d="m292.83,0h319.8c207.65,0,386.59,129.09,460.58,310.97h-212c-56.93-75.71-147.41-125.02-248.59-125.02h-133.85v621.94h-185.95V0Z"/>
    <path class="cls-4" d="m478.78,807.9h133.85c138.34,0,256.71-92.19,296.61-218h-152.34v-185.95h343.84c5.77,30.14,8.82,61.22,8.82,92.98h0c0,273.31-223.61,496.92-496.92,496.92h-133.85l-185.95-185.95h185.95Z"/>
  </g>
  <g>
    <path class="cls-1" d="m17.5,1152.26h103.5c70.2,0,118.5,39.9,118.5,105s-48.3,105-118.5,105H17.5v-210Zm100.5,154.8c29.7,0,50.1-17.7,50.1-49.8s-20.4-49.8-50.1-49.8h-29.7v99.6h29.7Z"/>
    <path class="cls-1" d="m439.9,1308.87v53.4h-174.6v-210h170.7v53.4h-101.1v24.6h88.8v51h-88.8v27.6h105Z"/>
    <path class="cls-1" d="m688.6,1152.26l-88.8,210h-69.6l-88.8-210h76.2l50.1,122.7,51.3-122.7h69.6Z"/>
    <path class="cls-1" d="m865,1257.27h21.3v80.1c-19.8,17.7-48,26.7-77.1,26.7-63.9,0-110.7-45.3-110.7-106.8s46.8-106.8,111-106.8c31.8,0,59.4,10.2,78,30.3l-13.8,14.1c-17.7-17.4-38.7-24.6-63.3-24.6-51.9,0-90,36.9-90,87s38.1,87,89.7,87c20.1,0,38.7-4.5,54.9-16.2v-70.8Z"/>
    <path class="cls-1" d="m1097.5,1343.07v19.2h-148.5v-210h144v19.2h-121.8v74.7h108.6v18.9h-108.6v78h126.3Z"/>
    <path class="cls-1" d="m1367.79,1152.26v210h-21.3v-168l-82.5,141.3h-10.5l-82.5-140.4v167.1h-21.3v-210h18.3l91.2,155.7,90.3-155.7h18.3Z"/>
  </g>
  <g>
    <path class="cls-2" d="m0,1443.34c0-15.19,11.67-26.07,27.36-26.07,8.71,0,15.99,3.17,20.74,8.93l-7.49,6.91c-3.38-3.89-7.63-5.91-12.67-5.91-9.43,0-16.13,6.62-16.13,16.13s6.7,16.13,16.13,16.13c5.04,0,9.29-2.02,12.67-5.98l7.49,6.91c-4.75,5.83-12.02,9-20.81,9-15.63,0-27.29-10.87-27.29-26.07Z"/>
    <path class="cls-2" d="m97.2,1446.36v-28.23h11.67v27.79c0,9.58,4.18,13.54,11.23,13.54s11.23-3.96,11.23-13.54v-27.79h11.52v28.23c0,14.83-8.5,23.04-22.83,23.04s-22.83-8.21-22.83-23.04Z"/>
    <path class="cls-2" d="m192.53,1463.57l3.96-8.78c4.25,3.1,10.58,5.26,16.63,5.26,6.91,0,9.72-2.3,9.72-5.4,0-9.43-29.31-2.95-29.31-21.67,0-8.57,6.91-15.7,21.24-15.7,6.34,0,12.82,1.51,17.5,4.46l-3.6,8.86c-4.68-2.66-9.5-3.96-13.97-3.96-6.91,0-9.58,2.59-9.58,5.76,0,9.29,29.31,2.88,29.31,21.39,0,8.42-6.98,15.63-21.39,15.63-7.99,0-16.06-2.38-20.52-5.83Z"/>
    <path class="cls-2" d="m294.26,1427.64h-16.13v-9.5h43.92v9.5h-16.13v40.9h-11.67v-40.9Z"/>
    <path class="cls-2" d="m366.55,1443.34c0-14.98,11.67-26.07,27.58-26.07s27.58,11.02,27.58,26.07-11.74,26.07-27.58,26.07-27.58-11.09-27.58-26.07Zm43.35,0c0-9.58-6.77-16.13-15.77-16.13s-15.77,6.55-15.77,16.13,6.77,16.13,15.77,16.13,15.77-6.55,15.77-16.13Z"/>
    <path class="cls-2" d="m518.47,1468.54l-.07-30.24-14.83,24.91h-5.26l-14.76-24.27v29.59h-10.94v-50.4h9.65l18.87,31.32,18.58-31.32h9.58l.14,50.4h-10.95Z"/>
    <path class="cls-2" d="m642.02,1463.57l3.96-8.78c4.25,3.1,10.58,5.26,16.63,5.26,6.91,0,9.72-2.3,9.72-5.4,0-9.43-29.31-2.95-29.31-21.67,0-8.57,6.91-15.7,21.24-15.7,6.34,0,12.82,1.51,17.5,4.46l-3.6,8.86c-4.68-2.66-9.5-3.96-13.97-3.96-6.91,0-9.58,2.59-9.58,5.76,0,9.29,29.31,2.88,29.31,21.39,0,8.42-6.98,15.63-21.39,15.63-7.99,0-16.06-2.38-20.52-5.83Z"/>
    <path class="cls-2" d="m730.87,1443.34c0-14.98,11.67-26.07,27.58-26.07s27.58,11.02,27.58,26.07-11.74,26.07-27.58,26.07-27.58-11.09-27.58-26.07Zm43.35,0c0-9.58-6.77-16.13-15.77-16.13s-15.77,6.55-15.77,16.13,6.77,16.13,15.77,16.13,15.77-6.55,15.77-16.13Z"/>
    <path class="cls-2" d="m848.59,1427.5v13.32h23.33v9.36h-23.33v18.36h-11.67v-50.4h38.09v9.36h-26.43Z"/>
    <path class="cls-2" d="m935.85,1427.64h-16.13v-9.5h43.92v9.5h-16.13v40.9h-11.67v-40.9Z"/>
    <path class="cls-2" d="m1087.27,1418.14l-16.49,50.4h-12.53l-11.09-34.13-11.45,34.13h-12.46l-16.56-50.4h12.1l11.38,35.43,11.88-35.43h10.8l11.52,35.71,11.74-35.71h11.16Z"/>
    <path class="cls-2" d="m1167.4,1457.74h-23.4l-4.46,10.8h-11.95l22.47-50.4h11.52l22.54,50.4h-12.24l-4.46-10.8Zm-3.67-8.86l-7.99-19.3-7.99,19.3h15.99Z"/>
    <path class="cls-2" d="m1263.59,1468.54l-9.72-14.04h-10.73v14.04h-11.67v-50.4h21.82c13.47,0,21.89,6.98,21.89,18.29,0,7.56-3.82,13.11-10.37,15.91l11.3,16.2h-12.53Zm-10.94-40.9h-9.5v17.57h9.5c7.13,0,10.73-3.31,10.73-8.79s-3.6-8.78-10.73-8.78Z"/>
    <path class="cls-2" d="m1365.55,1459.18v9.36h-39.03v-50.4h38.09v9.36h-26.5v10.95h23.4v9.07h-23.4v11.67h27.43Z"/>
  </g>
</svg>